<?xml version="1.0" standalone="no"?>
<!DOCTYPE svg PUBLIC "-//W3C//DTD SVG 20010904//EN"
 "http://www.w3.org/TR/2001/REC-SVG-20010904/DTD/svg10.dtd">
<svg version="1.0" xmlns="http://www.w3.org/2000/svg"
 width="708.000000pt" height="245.000000pt" viewBox="0 0 708.000000 245.000000"
 preserveAspectRatio="xMidYMid meet">

<g transform="translate(0.000000,245.000000) scale(0.100000,-0.100000)"
fill="#000000" stroke="none">
<path d="M1326 2421 c-9 -10 -34 -68 -54 -127 l-37 -109 -85 -8 c-47 -4 -107
-11 -134 -16 -28 -5 -55 -7 -61 -4 -7 2 -38 42 -70 89 -32 47 -68 92 -81 101
-30 19 -46 13 -192 -73 -59 -35 -115 -68 -125 -74 -10 -6 -23 -22 -29 -35 -10
-22 -5 -39 42 -136 37 -76 51 -115 44 -124 -5 -7 -35 -44 -66 -83 -32 -39 -63
-82 -70 -96 -14 -31 -40 -33 -176 -11 -65 11 -99 12 -112 5 -11 -6 -26 -34
-35 -67 -37 -126 -72 -286 -68 -304 6 -22 43 -40 143 -71 97 -30 110 -41 110
-91 0 -23 7 -82 14 -130 8 -49 13 -94 10 -100 -3 -7 -35 -32 -73 -55 -93 -60
-121 -87 -121 -120 0 -28 95 -204 150 -279 40 -56 62 -56 174 2 49 25 96 45
106 45 9 0 48 -25 86 -57 38 -31 84 -65 102 -76 29 -17 32 -24 32 -65 0 -26
-7 -84 -16 -130 -20 -100 -17 -105 73 -134 80 -25 258 -68 283 -68 27 0 50 40
84 147 16 48 33 93 37 99 5 6 52 14 104 16 53 3 98 8 102 12 8 8 -13 73 -53
162 l-32 72 -139 4 c-127 4 -144 7 -217 36 -217 89 -358 239 -433 462 -28 86
-25 322 6 410 51 145 118 243 228 332 151 122 282 164 483 155 63 -4 133 -11
155 -18 52 -15 161 -65 205 -95 44 -31 50 -30 91 6 19 16 58 47 86 67 29 21
53 43 53 48 0 14 -33 42 -102 87 -35 22 -58 45 -58 55 0 10 7 66 17 124 9 58
13 113 10 123 -4 9 -22 23 -40 31 -35 14 -301 85 -322 85 -6 0 -20 -9 -29 -19z"/>
<path d="M1060 1410 c-61 -37 -92 -117 -135 -353 -19 -107 -13 -149 28 -183
28 -23 38 -26 94 -22 114 7 149 56 195 271 42 192 42 228 2 268 -26 26 -41 31
-90 35 -48 4 -66 1 -94 -16z m150 -29 c44 -31 45 -70 11 -235 -49 -233 -74
-271 -179 -271 -46 0 -57 4 -78 28 -17 21 -24 40 -24 72 0 48 54 301 74 350
33 78 129 106 196 56z"/>
<path d="M2195 1418 c-42 -14 -91 -79 -104 -136 -6 -26 -22 -96 -36 -157 -49
-214 -25 -275 105 -275 57 0 93 15 129 54 32 34 11 33 -30 -1 -28 -24 -42 -28
-96 -28 -119 0 -132 54 -74 305 37 158 62 204 118 219 72 20 123 8 160 -37 25
-32 42 -23 20 11 -32 49 -119 69 -192 45z"/>
<path d="M4142 1409 c-59 -30 -85 -86 -122 -263 -40 -193 -40 -219 6 -262 30
-29 43 -34 84 -34 111 0 156 46 189 193 13 56 30 127 37 158 23 94 19 153 -13
189 -39 43 -118 51 -181 19z m140 -20 c11 -6 26 -26 34 -44 12 -31 12 -45 -6
-132 -50 -249 -68 -298 -118 -324 -36 -20 -117 -17 -141 5 -44 40 -45 62 -7
240 38 179 51 213 92 245 30 23 110 29 146 10z"/>
<path d="M4675 1423 c-55 -14 -125 -112 -125 -175 0 -13 -11 -68 -25 -123 -50
-202 -23 -275 101 -275 48 0 96 18 132 49 42 36 22 41 -27 6 -40 -29 -57 -35
-100 -35 -45 0 -57 4 -82 29 -36 36 -38 76 -10 194 11 45 26 113 35 150 19 91
52 140 104 155 70 21 119 10 158 -37 24 -28 40 -15 19 16 -30 42 -111 63 -180
46z"/>
<path d="M1420 1418 c0 -2 -14 -68 -30 -148 -64 -302 -82 -401 -76 -407 11
-11 15 2 36 111 33 168 22 156 139 156 56 0 103 4 106 10 7 12 4 12 -105 14
l-85 1 2 50 c2 61 22 165 36 183 6 8 43 12 118 12 61 0 110 4 114 10 4 6 -40
10 -124 10 -72 0 -131 -1 -131 -2z"/>
<path d="M1750 1410 c0 -5 25 -10 55 -10 39 0 57 -4 61 -14 3 -8 -11 -90 -32
-183 -20 -92 -44 -202 -53 -243 l-17 -75 -44 -3 c-62 -3 -92 -11 -85 -21 5
-10 212 -13 258 -5 46 9 19 24 -44 24 -32 0 -59 3 -59 6 0 7 54 266 84 404
l22 105 60 3 c32 2 63 7 69 13 5 5 -44 9 -133 9 -88 0 -142 -4 -142 -10z"/>
<path d="M2485 1410 c3 -5 31 -10 62 -10 l56 0 -6 -47 c-6 -53 -52 -279 -62
-304 -3 -8 -11 -49 -18 -90 l-13 -74 -63 -5 c-36 -3 -66 -10 -68 -17 -4 -12
230 -19 261 -7 30 12 5 24 -51 24 l-56 0 6 43 c3 24 15 84 26 133 11 49 33
145 48 214 l28 125 60 3 c33 2 64 7 70 13 5 5 -46 9 -139 9 -95 0 -145 -4
-141 -10z"/>
<path d="M2836 1403 c-6 -20 -56 -256 -91 -431 -14 -73 -18 -111 -11 -109 11
3 32 92 76 317 23 118 35 154 50 145 10 -6 24 -50 126 -402 13 -47 22 -63 35
-63 13 0 20 10 24 38 13 84 80 415 100 495 10 39 -11 34 -24 -5 -5 -18 -15
-60 -21 -93 -19 -99 -61 -288 -72 -323 -9 -31 -11 -32 -23 -15 -7 10 -18 39
-25 63 -6 25 -19 72 -30 105 -10 33 -33 113 -51 178 -31 111 -50 141 -63 100z"/>
<path d="M3342 1403 c-5 -10 -47 -90 -92 -178 -46 -88 -100 -191 -122 -228
-21 -38 -38 -71 -38 -74 0 -3 -9 -18 -21 -34 -16 -23 -17 -29 -5 -29 8 0 35
38 63 90 l48 90 106 0 106 0 7 -90 c6 -71 11 -90 23 -90 11 0 13 8 9 38 -3 20
-13 120 -22 222 -21 248 -27 293 -41 297 -6 2 -16 -4 -21 -14z m23 -115 c3
-35 7 -99 8 -143 l2 -80 -79 -3 c-44 -2 -83 1 -89 7 -7 7 79 190 130 274 12
20 22 1 28 -55z"/>
<path d="M3715 1393 c-4 -16 -20 -91 -35 -168 -16 -77 -38 -180 -49 -230 -11
-49 -21 -103 -21 -119 l0 -29 103 6 c194 12 200 20 267 340 12 55 18 109 15
120 -27 94 -48 107 -178 107 l-95 0 -7 -27z m199 -3 c31 -11 56 -58 56 -102
-1 -53 -65 -324 -84 -353 -26 -39 -74 -55 -166 -55 -95 0 -91 -10 -56 154 14
61 37 168 52 239 l27 127 73 0 c40 0 84 -4 98 -10z"/>
<path d="M4976 1408 c-2 -7 -11 -49 -19 -93 -31 -159 -66 -324 -82 -385 -13
-52 -14 -65 -3 -72 18 -11 238 -5 238 7 0 6 -46 11 -111 13 -109 3 -111 3
-105 25 3 12 13 63 22 112 9 50 21 95 26 102 6 8 45 13 104 15 120 4 121 23 2
24 -48 0 -90 3 -93 6 -4 3 5 57 18 119 l23 114 115 3 c164 4 165 22 1 22 -98
0 -134 -3 -136 -12z"/>
<path d="M5350 1368 c-19 -87 -70 -328 -86 -403 -25 -125 -33 -116 103 -114
123 1 147 5 137 20 -3 5 -55 9 -116 9 l-111 0 6 48 c3 26 24 133 47 237 53
247 55 255 42 255 -6 0 -16 -24 -22 -52z"/>
<path d="M5680 1418 c0 -2 -12 -55 -26 -118 -48 -220 -58 -275 -58 -333 -1
-54 1 -61 33 -89 31 -28 38 -30 97 -26 102 6 148 56 178 192 57 259 78 368 72
373 -11 11 -14 1 -46 -147 -72 -337 -75 -345 -133 -380 -55 -34 -154 -19 -171
25 -14 37 -4 124 34 302 22 103 40 191 40 196 0 6 -20 11 -20 5z"/>
<path d="M6095 1408 c-2 -7 -13 -58 -24 -113 -11 -55 -36 -174 -55 -264 -20
-90 -33 -168 -30 -172 6 -10 164 -11 244 -3 l56 6 46 87 46 86 109 0 108 0 9
-87 c5 -49 13 -88 18 -88 4 0 8 12 8 26 0 39 -19 259 -30 344 -5 41 -12 101
-16 133 -10 92 -5 98 -162 -203 -56 -107 -112 -214 -124 -237 l-23 -43 -133 0
-134 0 7 27 c3 14 15 76 26 136 11 61 22 114 24 118 3 4 14 53 25 110 11 57
22 114 25 127 6 23 -12 32 -20 10z m484 -211 c6 -65 9 -122 6 -128 -4 -5 -44
-9 -91 -9 -63 0 -84 3 -84 13 0 13 96 205 128 256 14 24 15 24 22 5 4 -10 13
-72 19 -137z"/>
<path d="M6795 1403 c-3 -10 -17 -71 -31 -135 -23 -114 -71 -339 -81 -385 -8
-33 15 -28 24 5 4 15 16 74 28 132 l21 105 47 3 c26 2 54 -1 64 -6 10 -6 30
-57 52 -133 20 -67 42 -124 49 -127 16 -5 11 15 -30 146 -16 52 -27 99 -25
105 3 7 27 20 54 29 38 14 54 26 70 55 43 79 40 145 -9 193 -29 29 -32 30
-128 30 -84 0 -99 -3 -105 -17z m194 -17 c76 -40 64 -176 -20 -218 -37 -20
-199 -26 -199 -8 0 10 39 207 46 228 5 17 137 16 173 -2z"/>
</g>
</svg>
