<?xml version="1.0" standalone="no"?>
<!DOCTYPE svg PUBLIC "-//W3C//DTD SVG 20010904//EN"
 "http://www.w3.org/TR/2001/REC-SVG-20010904/DTD/svg10.dtd">
<svg version="1.0" xmlns="http://www.w3.org/2000/svg"
 width="586.000000pt" height="586.000000pt" viewBox="0 0 586.000000 586.000000"
 preserveAspectRatio="xMidYMid meet">

<g transform="translate(0.000000,586.000000) scale(0.100000,-0.100000)"
fill="#000000" stroke="none">
<path d="M1208 3643 c-193 -3 -238 -6 -238 -17 0 -19 18 -31 78 -51 39 -12 56
-24 63 -42 10 -27 13 -1093 3 -1130 -5 -18 -21 -27 -76 -44 -54 -16 -69 -24
-66 -37 3 -15 27 -17 236 -20 224 -2 232 -2 232 17 0 15 -14 23 -62 38 l-63
19 -6 69 c-10 109 -10 458 0 474 7 11 22 12 62 7 29 -4 60 -11 70 -17 20 -10
99 -134 183 -286 l54 -98 -10 -55 c-6 -30 -8 -111 -5 -180 6 -181 50 -303 149
-417 87 -102 212 -177 344 -209 100 -25 285 -23 387 4 108 30 221 90 225 121
3 20 0 23 -20 18 -215 -51 -330 -59 -459 -32 -198 42 -345 189 -399 401 -33
129 -42 120 115 116 l135 -4 0 25 c0 21 -7 26 -46 36 -54 14 -117 69 -170 148
-43 66 -42 85 16 201 96 192 282 283 517 254 52 -7 102 -16 112 -21 12 -7 29
-51 51 -130 26 -97 37 -121 51 -121 10 0 20 8 23 18 11 38 57 294 53 298 -2 3
-40 12 -83 21 -111 23 -375 23 -466 0 -149 -37 -267 -103 -366 -205 -34 -36
-64 -63 -66 -61 -7 8 -126 200 -126 203 0 2 26 13 58 25 117 44 209 140 231
241 40 185 -30 332 -186 390 -52 19 -217 42 -273 37 -14 -1 -132 -3 -262 -4z
m353 -93 c78 -21 138 -83 160 -164 17 -63 7 -203 -19 -252 -50 -98 -137 -137
-298 -132 l-99 3 0 275 0 275 40 7 c48 8 166 1 216 -12z"/>
<path d="M3905 2469 c-66 -8 -105 -29 -147 -79 -42 -48 -58 -98 -58 -176 0
-82 15 -129 57 -175 47 -52 79 -68 152 -75 120 -13 219 35 265 128 21 43 26
66 26 130 0 88 -16 137 -58 181 -53 56 -136 79 -237 66z m143 -51 c55 -34 77
-93 77 -208 -1 -82 -4 -101 -25 -140 -30 -54 -76 -80 -143 -80 -98 0 -155 53
-177 164 -20 101 2 207 53 255 50 45 149 50 215 9z"/>
<path d="M2913 2451 c-52 -24 -78 -63 -78 -116 0 -62 25 -90 125 -140 106 -53
129 -83 109 -142 -14 -43 -64 -68 -122 -60 -50 7 -64 20 -72 68 -11 66 -27 49
-38 -39 -5 -44 17 -55 113 -56 132 0 200 48 200 143 0 55 -38 97 -126 137
-111 50 -144 115 -89 170 22 22 32 25 83 22 l57 -3 13 -42 c8 -24 18 -43 22
-43 10 0 24 99 15 108 -4 4 -43 8 -88 10 -64 2 -91 -2 -124 -17z"/>
<path d="M4390 2461 c-77 -6 -83 -7 -57 -18 l27 -13 0 -214 c0 -206 -1 -215
-20 -221 -43 -14 -16 -25 60 -25 81 0 98 7 58 25 -21 9 -23 17 -26 108 -3 96
-3 97 21 97 30 0 41 -14 103 -119 58 -100 76 -113 141 -109 l48 3 -35 21 c-22
14 -54 52 -87 105 -61 99 -70 119 -53 119 7 0 28 11 46 25 41 31 58 84 44 136
-19 70 -93 92 -270 80z m167 -46 c25 -17 38 -69 28 -114 -10 -45 -48 -71 -106
-71 l-49 0 0 99 c0 70 4 101 13 105 19 8 90 -3 114 -19z"/>
<path d="M3207 2453 c-6 -14 5 -113 13 -113 5 0 15 19 22 43 l15 42 61 3 62 3
0 -211 0 -211 -30 -13 c-46 -19 -26 -26 72 -26 92 0 109 8 58 27 l-30 11 0
212 0 211 63 -3 62 -3 9 -42 c15 -67 27 -56 41 35 l7 42 -211 0 c-115 0 -212
-3 -214 -7z"/>
<path d="M4800 2455 c0 -3 11 -10 25 -15 l25 -10 0 -213 0 -214 -27 -14 c-25
-13 -12 -14 141 -17 93 -1 170 -1 171 0 2 2 6 29 10 61 9 68 -4 75 -30 17 -21
-47 -36 -52 -125 -48 l-65 3 -3 103 -3 102 61 0 c59 0 61 -1 71 -30 16 -46 29
-26 29 46 0 66 -13 84 -30 39 -9 -23 -15 -25 -70 -25 l-60 0 0 95 0 95 80 0
c79 0 81 -1 91 -27 22 -61 20 -59 29 -38 4 11 10 37 13 58 l6 37 -170 0 c-93
0 -169 -2 -169 -5z"/>
</g>
</svg>
